<?xml version="1.0" ?><svg contentScriptType="text/ecmascript" contentStyleType="text/css" enable-background="new 0 0 109.753 99.815" height="63.00199890136719px" id="Layer_1" preserveAspectRatio="xMidYMid meet" version="1.0" viewBox="37.35857582092285 22.0 63.00199890136719 63.00199890136719" width="63.00199890136719px" xml:space="preserve" xmlns="http://www.w3.org/2000/svg" xmlns:xlink="http://www.w3.org/1999/xlink" zoomAndPan="magnify"><g><path d="M59.654,74.975h-2.462   c-0.906,0-1.642-0.733-1.642-1.641V24.641c0-0.905,0.734-1.641,1.642-1.641h39.667c0.905,0,1.641,0.734,1.641,1.641" fill="none" stroke="#414042" stroke-miterlimit="10" stroke-width="2"/><path d="M98.5,24.641v47.872   c0,0.906-0.729,1.643-1.627,1.643l-32.797,9.846c-0.898,0-1.627-0.734-1.627-1.642V36.488c0-0.905,0.729-1.642,1.627-1.642   L92.873,27" fill="none" stroke="#414042" stroke-miterlimit="10" stroke-width="2"/><ellipse cx="70.109" cy="59.5" fill="none" rx="2.416" ry="2.333" stroke="#414042" stroke-miterlimit="10" stroke-width="2"/><line fill="none" stroke="#414042" stroke-miterlimit="10" stroke-width="2" x1="50.5" x2="40.5" y1="49" y2="49"/><polyline fill="none" points="43.5,54 39.5,49 43.5,44  " stroke="#414042" stroke-miterlimit="10" stroke-width="2"/></g></svg>