<svg xmlns="http://www.w3.org/2000/svg" xmlns:xlink="http://www.w3.org/1999/xlink" version="1.1" id="Layer_1" x="0px" y="0px" width="100px" height="100px" viewBox="0 0 100 100" enable-background="new 0 0 100 100" xml:space="preserve">
<path fill="#000000" d="M51.843,83.439c20.3,0.001,36.756-16.455,36.756-36.755c0-20.3-16.456-36.756-36.756-36.756  S15.087,26.384,15.087,46.684C15.087,66.984,31.543,83.439,51.843,83.439z M51.843,10.428c19.991,0,36.256,16.265,36.256,36.256  c0,19.992-16.265,36.256-36.256,36.255c-19.991,0-36.256-16.264-36.256-36.255C15.587,26.693,31.852,10.428,51.843,10.428z"/>
<path fill="#000000" d="M51.843,82.439C71.559,82.44,87.599,66.4,87.599,46.684c0-19.716-16.04-35.756-35.756-35.756  s-35.756,16.04-35.756,35.756C16.087,66.4,32.127,82.439,51.843,82.439z M51.902,21.399l17.97,25.634l-10.177,0.052V71.97  l-15.704-0.001v-24.92l-10.18,0.036L51.902,21.399z"/>
<path fill="#000000" d="M-66.256,95.006"/>
<rect x="43.991" y="70.45" fill="#000000" width="15.704" height="0.781"/>
<rect x="43.991" y="68.979" fill="#000000" width="15.704" height="0.781"/>
<rect x="43.991" y="67.46" fill="#000000" width="15.704" height="0.781"/>
</svg>