<?xml version="1.0" encoding="utf-8"?>
<!-- Generator: Adobe Illustrator 16.0.0, SVG Export Plug-In . SVG Version: 6.00 Build 0)  -->
<!DOCTYPE svg PUBLIC "-//W3C//DTD SVG 1.1//EN" "http://www.w3.org/Graphics/SVG/1.1/DTD/svg11.dtd">
<svg version="1.1" id="Layer_1" xmlns="http://www.w3.org/2000/svg" xmlns:xlink="http://www.w3.org/1999/xlink" x="0px" y="0px"
	 width="416px" height="85px" viewBox="0 0 416 85" enable-background="new 0 0 416 85" xml:space="preserve">
<path fill="#FFFFFF" d="M46.292,1c8.563,16.079,17.127,32.157,25.596,48.057c0-15.006,0-30.594,0-46.619c3.126,0,5.653,0,8.801,0
	c0,10.758,0.022,21.516-0.006,32.273c-0.035,13.646-0.109,27.294-0.169,40.941c-0.01,2.406,0.858,5.229-2.945,5.738
	c-3.38,0.45-5.192-0.918-6.16-4.236c-5.372-18.416-12.826-35.986-21.88-52.884c-0.45-0.84-0.985-1.634-2.422-2.386
	c0,2.013,0.013,4.024-0.002,6.036c-0.124,16.637-0.269,33.273-0.365,49.91c-0.014,2.539-0.158,4.568-3.595,4.643
	c-3.585,0.078-4.692-1.645-4.682-4.854c0.022-6.99-0.118-13.98-0.051-20.971c0.158-16.622,0.358-33.245,0.657-49.864
	C39.104,4.85,39.867,2.928,40.292,1C42.292,1,44.292,1,46.292,1z"/>
<path fill="#FFFFFF" d="M328.257,1c4.608,21.937,2.909,44.07,1.912,66.16c-0.541,11.986-6.137,16.517-17.769,15.217
	c-7.129-0.795-10.588-5.986-13.064-11.679c-1.833-4.212-3.408-8.916-3.504-13.435C295.441,39,295.67,20.725,295.67,2.229
	c2.699,0,4.828,0,7.855,0c0,3.829,0.013,7.736-0.002,11.644c-0.043,11.483-0.469,22.981,0.01,34.441
	c0.244,5.892,2.02,11.729,3.273,17.558c0.303,1.41,0.961,3.085,2.021,3.927c2.432,1.934,5.229,4.803,7.848,4.77
	c3.733-0.047,4.762-4.059,4.95-7.576c1.079-20.094,2.897-40.191-0.823-60.231c-0.34-1.829,0.279-3.835,0.453-5.759
	C323.591,1,325.923,1,328.257,1z"/>
<path fill="#FFFFFF" d="M29.294,1c2.772,5.312,1.671,7.283-4.132,7.439c-1.619,0.044-3.236,0.163-5.375,0.274
	c0,21.855,0,43.378,0,65.331c2.738,0,4.825-0.453,6.549,0.144c1.407,0.485,3.254,2.193,3.298,3.42
	c0.043,1.199-1.834,3.41-3.062,3.557c-7.224,0.871-14.5,1.438-21.773,1.668c-1.332,0.043-2.728-1.938-4.094-2.984
	c1.337-1.096,2.517-2.662,4.049-3.173c2.108-0.702,4.482-0.604,6.419-0.815c0-22.711,0-44.933,0-67.029
	C7.381,8.06,3.915,7.528,0.635,6.435C0.29,6.319,1.05,2.891,1.297,1C10.63,1,19.961,1,29.294,1z"/>
<path fill="#FFFFFF" d="M157.278,1c2.772,5.312,1.671,7.283-4.132,7.439c-1.619,0.044-3.236,0.163-5.375,0.274
	c0,21.855,0,43.378,0,65.331c2.738,0,4.825-0.453,6.549,0.144c1.407,0.485,3.254,2.193,3.298,3.42
	c0.043,1.199-1.833,3.41-3.062,3.557c-7.224,0.871-14.5,1.438-21.773,1.668c-1.332,0.043-2.728-1.938-4.095-2.984
	c1.337-1.096,2.518-2.662,4.049-3.173c2.112-0.702,4.49-0.606,6.419-0.815c0-22.711,0-44.933,0-67.029
	c-3.792-0.77-7.258-1.301-10.538-2.395C128.273,6.32,129.033,2.891,129.28,1C138.614,1,147.945,1,157.278,1z"/>
<path fill="#FFFFFF" d="M236.268,1c2.772,5.312,1.672,7.283-4.131,7.439c-1.619,0.044-3.236,0.163-5.375,0.274
	c0,21.855,0,43.378,0,65.331c2.737,0,4.825-0.453,6.549,0.144c1.407,0.485,3.254,2.193,3.299,3.42
	c0.043,1.199-1.834,3.41-3.062,3.557c-7.224,0.871-14.5,1.438-21.771,1.668c-1.332,0.043-2.729-1.938-4.095-2.984
	c1.337-1.096,2.518-2.662,4.05-3.173c2.11-0.702,4.488-0.606,6.418-0.815c0-22.711,0-44.933,0-67.029
	c-3.791-0.77-7.258-1.301-10.538-2.395c-0.345-0.115,0.415-3.544,0.662-5.435C217.604,1,226.936,1,236.268,1z"/>
<path fill="#FFFFFF" d="M287.262,1c0.627,1.664,1.782,3.371,1.65,4.973c-0.062,0.778-2.491,1.796-3.928,1.947
	c-4.428,0.466-8.895,0.566-13.739,0.83c0,12.885-0.019,25.502,0.006,38.12c0.019,10.151-0.035,20.304,0.196,30.45
	c0.082,3.609-1.018,5.168-4.771,5.158c-4.183-0.015-3.826-2.735-3.816-5.443c0.074-20.799,0.156-41.596,0.201-62.395
	c0.004-1.799-0.244-3.598-0.412-5.902c-3.666,0.236-7.078,0.702-10.475,0.599c-2.669-0.081-6.834,1.403-6.902-3.298
	c-0.062-4.199,3.629-3.93,6.646-4.046c8.116-0.312,16.229-0.66,24.347-0.993C279.93,1,283.596,1,287.262,1z"/>
<path fill="#FFFFFF" d="M86.926,42.234c0-11.635,0.035-23.27-0.021-34.905c-0.017-3.448,1.339-5.253,4.958-5.348
	c15.787-0.413,31.35,11.583,30.317,29.638c-0.992,17.35-6.375,32.803-18.128,45.811c-0.774,0.857-1.588,1.737-2.544,2.36
	c-3.289,2.14-6.449,5.121-10.857,3.089c-4.455-2.055-2.975-6.32-3.05-9.723c-0.228-10.303-0.082-20.612-0.082-30.92
	C87.321,42.236,87.124,42.236,86.926,42.234z M95.813,72.011c0.505,0.039,1.011,0.078,1.516,0.117
	c10.699-12.315,16.361-26.784,16.673-43.056c0.172-9.012-9.468-17.818-18.189-18.174C95.813,31.27,95.813,51.641,95.813,72.011z"/>
<path fill="#FFFFFF" d="M338.893,42.205c0-11.635,0.033-23.271-0.021-34.905c-0.017-3.46,1.382-5.229,4.989-5.319
	c15.794-0.396,31.337,11.616,30.285,29.669c-1.008,17.345-6.381,32.802-18.146,45.803c-0.774,0.855-1.592,1.732-2.549,2.355
	c-3.289,2.142-6.458,5.116-10.86,3.06c-4.431-2.072-2.947-6.339-3.023-9.74c-0.229-10.303-0.082-20.612-0.082-30.92
	C339.288,42.205,339.09,42.205,338.893,42.205z M347.902,10.518c0,20.616,0,41.064,0,62.208
	c8.756-7.537,15.052-22.656,17.849-36.934C368.13,23.643,358.672,11.971,347.902,10.518z"/>
<path fill="#FFFFFF" d="M388.986,9.418c-0.668,11.035-1.27,20.963-1.838,30.346c3.313,3.554,11.63-2.974,10.92,7.044
	c-3.469,0-6.871,0-10.938,0c0,9.729,0,18.92,0,27.75c7.379,0,14.307-0.016,21.233,0.006c2.75,0.011,5.729,0.043,5.581,3.91
	c-0.134,3.467-2.851,3.451-5.479,3.539c-7.806,0.264-15.609,0.596-23.408,0.994c-4.056,0.209-6.299-1.127-6.185-5.637
	c0.586-23.122,1.039-46.248,1.594-69.372c0.072-3.034,1.4-4.999,4.875-5.024c8.317-0.059,16.638-0.398,24.949-0.277
	c1.455,0.021,3.855,1.5,4.136,2.701c0.697,2.976-1.6,4.002-4.268,4.012C403.365,9.435,396.568,9.418,388.986,9.418z"/>
<path fill="#FFFFFF" d="M172.279,74.561c8.539,0,15.483-0.014,22.428,0.008c2.606,0.009,5.303,0.199,5.275,3.718
	c-0.027,3.457-2.595,3.646-5.288,3.729c-8.131,0.258-16.258,0.642-24.387,0.971c-3.394,0.14-5.444-1.176-5.362-4.885
	c0.522-23.437,1.008-46.874,1.572-70.309c0.075-3.105,1.655-4.814,5.053-4.828c8.31-0.029,16.622-0.391,24.927-0.26
	c1.398,0.021,2.768,1.834,4.15,2.82c-1.375,1.295-2.691,3.628-4.135,3.71c-6.929,0.393-13.892,0.177-21.948,0.177
	C173.779,31.812,173.025,53.296,172.279,74.561z"/>
<path fill="#FFFFFF" d="M180.919,56.824c0-10.026,0-18.668,0-28.387c7.393,3.691,14.399,7.189,22.375,11.173
	C195.788,45.385,189.045,50.572,180.919,56.824z"/>
</svg>
