<?xml version="1.0" encoding="utf-8"?>
<!-- Generator: Adobe Illustrator 17.1.0, SVG Export Plug-In . SVG Version: 6.00 Build 0)  -->
<!DOCTYPE svg PUBLIC "-//W3C//DTD SVG 1.1//EN" "http://www.w3.org/Graphics/SVG/1.1/DTD/svg11.dtd">
<svg version="1.1" id="Layer_1" xmlns="http://www.w3.org/2000/svg" xmlns:xlink="http://www.w3.org/1999/xlink" x="0px" y="0px" width="120" height="120"
	 viewBox="0 0 124.3 36" enable-background="new 0 0 124.3 36" xml:space="preserve">
<path fill="#010101" d="M12.4,0.6H21v4h-4.5v10.7h4v3.9h-4v12.2h4.7v4h-8.7V0.6z M22.6,35.4h4.1V19.2h4v-4h-4V4.6h4.5v-4h-8.6V35.4z
	 M57.2,35.4h3.4V17.9h0.2l2.7,12.7h1.1l2.6-12.7h0.2v17.5h3.8V0.6h-3.9l-3,16.2H64L60.8,0.6h-3.6V35.4z M77,23.2l0.8-15.1h0.3
	L79,23.2H77z M72.5,35.4h3.7l0.6-8.7h2.4l0.7,8.7h3.9l-3-34.8h-5.2L72.5,35.4z M86.2,35.4h3.9V4.6h3.5v-4H82.7v4h3.5V35.4z
	 M94.9,35.4h3.9V0.6h-3.9V35.4z M112.7,35.4h3.4V14.2h0.1l4.7,21.2h3.4V0.6H121v18h-0.2l-4.1-18h-3.9V35.4z M38.7,30.9
	c0,0.7-0.1,1.4-1,1.4c-0.9,0-1.2-0.7-1.2-1.4V5.2c0-0.7,0.2-1.4,1.1-1.4c0.8,0,1.1,0.7,1.1,1.4V30.9 M32.4,30.1
	c0,3.3,1.3,5.9,5.3,5.9c3.9,0,5.2-2.7,5.2-5.9V5.9c0-3.1-1.2-5.9-5.1-5.9c-3.9,0-5.3,2.7-5.3,5.9V30.1 M48.5,16.1V4.3h1.2
	c0.6,0,1.2,0.1,1.2,1.4v8.8c0,1.2-0.5,1.5-1.1,1.5H48.5z M44.8,35.4h3.7V20.2H50c0.7,0,1,0.4,1,1.1v10.4c0,1.7,0.2,2.7,0.5,3.6h4.1
	v-0.3C55.1,33.9,55,32.3,55,31v-9.1c0-1.5-0.4-3.1-2-3.7v0c2.3-1,2-4.4,2-5.9V5.6c0-2.9-1.6-5-4.6-5h-5.7V35.4z M106.8,30.9
	c0,0.7-0.1,1.4-1,1.4c-0.9,0-1.2-0.7-1.2-1.4V5.2c0-0.7,0.2-1.4,1.1-1.4c0.8,0,1.1,0.7,1.1,1.4V30.9 M100.5,30.1
	c0,3.3,1.3,5.9,5.3,5.9c3.9,0,5.2-2.7,5.2-5.9V5.9c0-3.1-1.2-5.9-5.1-5.9c-3.9,0-5.3,2.7-5.3,5.9V30.1 M3.7,16.1V4.3h1.2
	c0.6,0,1.2,0.1,1.2,1.4v8.8c0,1.2-0.4,1.5-1.1,1.5H3.7z M0,35.4h3.7V20.2h1.5c0.7,0,1,0.4,1,1.1v10.4c0,1.7,0.2,2.7,0.5,3.6h4.1
	v-0.3c-0.5-1.2-0.6-2.8-0.6-4.1v-9.1c0-1.5-0.4-3.1-2-3.7v0c2.3-1,2-4.4,2-5.9V5.6c0-2.9-1.6-5-4.6-5H0V35.4z"/>
</svg>
