<?xml version="1.0" standalone="no"?>
<!DOCTYPE svg PUBLIC "-//W3C//DTD SVG 20010904//EN"
 "http://www.w3.org/TR/2001/REC-SVG-20010904/DTD/svg10.dtd">
<svg version="1.0" xmlns="http://www.w3.org/2000/svg"
 width="140.000000pt" height="140.000000pt" viewBox="0 0 140.000000 140.000000"
 preserveAspectRatio="xMidYMid meet">
<metadata>
Created by potrace 1.11, written by Peter Selinger 2001-2013
</metadata>
<g transform="translate(0.000000,140.000000) scale(0.100000,-0.100000)"
fill="#000000" stroke="none">
<path d="M377 1370 c-8 -19 -36 -90 -62 -158 -26 -67 -49 -121 -50 -120 -4 4
-43 102 -76 186 -13 34 -29 62 -36 62 -7 0 -13 -3 -13 -7 0 -5 25 -70 55 -146
42 -107 52 -143 45 -160 -24 -57 -100 -257 -100 -262 0 -3 6 -5 14 -5 8 0 22
21 32 48 48 129 70 180 79 182 6 1 34 -61 64 -139 30 -78 58 -141 61 -141 4 0
31 62 60 138 29 75 57 141 61 146 9 10 12 3 70 -146 19 -50 39 -88 47 -88 16
0 14 8 -44 158 -24 62 -44 121 -44 132 0 11 23 76 50 145 54 135 56 145 37
145 -6 0 -32 -52 -57 -116 -25 -64 -49 -115 -55 -114 -9 1 -29 46 -95 220
l-28 75 -15 -35z m69 -457 l-54 -138 -16 35 c-8 19 -33 81 -55 138 l-39 102
39 103 c22 56 47 118 55 137 l16 35 54 -138 53 -137 -53 -137z"/>
<path d="M692 1270 c-72 -44 -68 -156 8 -195 82 -42 170 14 170 111 0 28 -8
44 -34 70 -41 41 -92 46 -144 14z m123 -35 c31 -31 34 -86 5 -115 -44 -44
-108 -34 -139 21 -45 81 68 160 134 94z"/>
<path d="M917 1283 c-4 -3 -7 -53 -7 -110 0 -85 3 -103 15 -103 11 0 15 11 15
40 0 22 3 40 8 40 4 -1 19 -19 34 -40 15 -22 35 -40 43 -40 18 0 15 7 -23 58
l-24 32 26 21 c25 20 33 53 18 75 -18 27 -88 45 -105 27z"/>
<path d="M1077 1283 c-4 -3 -7 -53 -7 -110 l0 -103 54 0 c43 0 60 5 84 25 62
52 46 149 -29 179 -41 17 -91 21 -102 9z"/>
<path d="M910 919 c0 -84 3 -110 13 -107 6 3 14 27 17 54 l5 49 50 0 50 0 3
-53 c2 -36 7 -52 15 -49 17 5 17 209 0 215 -9 2 -13 -9 -13 -37 0 -26 -5 -41
-12 -42 -7 -1 -31 -2 -53 -2 -40 0 -40 0 -43 41 -2 29 -8 42 -18 42 -11 0 -14
-21 -14 -111z"/>
</g>
</svg>
